<svg xmlns="http://www.w3.org/2000/svg" width="592" height="170" viewBox="0 0 592 170" role="img" shape-rendering="crispEdges"><defs><style><![CDATA[
    @keyframes glacla { 0%,100% { opacity:.55 } 50% { opacity:1 } }
    @keyframes bbacla { 0%,100% { transform:translateY(0) } 50% { transform:translateY(-4px) } }
    .glacla { animation:glacla 2.6s ease-in-out infinite }
    .bbacla { animation:bbacla 3s ease-in-out infinite }]]></style></defs>
  <rect width="592" height="170" fill="#0f0f0f"/>
  <rect x="10" y="14" width="572" height="142" fill="#100010"/><rect x="10" y="14" width="572" height="4" fill="#4b1ba0"/><rect x="10" y="14" width="4" height="142" fill="#4b1ba0"/><rect x="10" y="152" width="572" height="4" fill="#2d0a63"/><rect x="578" y="14" width="4" height="142" fill="#2d0a63"/>
  <rect class="glacla" x="14" y="18" width="564" height="4" fill="#c92626" opacity=".7"/>
  <g class="bbacla"><rect x="42" y="52" width="64" height="64" fill="#93211d"/><rect x="42" y="52" width="64" height="16" fill="#c92626"/><rect x="49" y="90" width="17" height="14" fill="#ffffff"/><rect x="81" y="63" width="16" height="16" fill="#ffffff"/><rect x="69" y="81" width="12" height="12" fill="#ffffff"/></g>
  <rect x="134" y="47" width="9" height="3" fill="#3f3f3f"/><rect x="131" y="50" width="3" height="3" fill="#3f3f3f"/><rect x="143" y="50" width="3" height="3" fill="#3f3f3f"/><rect x="131" y="53" width="3" height="3" fill="#3f3f3f"/><rect x="131" y="56" width="3" height="3" fill="#3f3f3f"/><rect x="137" y="56" width="9" height="3" fill="#3f3f3f"/><rect x="131" y="59" width="3" height="3" fill="#3f3f3f"/><rect x="143" y="59" width="3" height="3" fill="#3f3f3f"/><rect x="131" y="62" width="3" height="3" fill="#3f3f3f"/><rect x="143" y="62" width="3" height="3" fill="#3f3f3f"/><rect x="134" y="65" width="12" height="3" fill="#3f3f3f"/><rect x="152" y="47" width="9" height="3" fill="#3f3f3f"/><rect x="149" y="50" width="3" height="3" fill="#3f3f3f"/><rect x="161" y="50" width="3" height="3" fill="#3f3f3f"/><rect x="149" y="53" width="3" height="3" fill="#3f3f3f"/><rect x="161" y="53" width="3" height="3" fill="#3f3f3f"/><rect x="149" y="56" width="3" height="3" fill="#3f3f3f"/><rect x="161" y="56" width="3" height="3" fill="#3f3f3f"/><rect x="149" y="59" width="3" height="3" fill="#3f3f3f"/><rect x="161" y="59" width="3" height="3" fill="#3f3f3f"/><rect x="149" y="62" width="3" height="3" fill="#3f3f3f"/><rect x="161" y="62" width="3" height="3" fill="#3f3f3f"/><rect x="152" y="65" width="9" height="3" fill="#3f3f3f"/><rect x="170" y="47" width="9" height="3" fill="#3f3f3f"/><rect x="167" y="50" width="3" height="3" fill="#3f3f3f"/><rect x="179" y="50" width="3" height="3" fill="#3f3f3f"/><rect x="167" y="53" width="3" height="3" fill="#3f3f3f"/><rect x="179" y="53" width="3" height="3" fill="#3f3f3f"/><rect x="167" y="56" width="15" height="3" fill="#3f3f3f"/><rect x="167" y="59" width="3" height="3" fill="#3f3f3f"/><rect x="179" y="59" width="3" height="3" fill="#3f3f3f"/><rect x="167" y="62" width="3" height="3" fill="#3f3f3f"/><rect x="179" y="62" width="3" height="3" fill="#3f3f3f"/><rect x="167" y="65" width="3" height="3" fill="#3f3f3f"/><rect x="179" y="65" width="3" height="3" fill="#3f3f3f"/><rect x="185" y="47" width="3" height="3" fill="#3f3f3f"/><rect x="185" y="50" width="3" height="3" fill="#3f3f3f"/><rect x="185" y="53" width="3" height="3" fill="#3f3f3f"/><rect x="185" y="56" width="3" height="3" fill="#3f3f3f"/><rect x="185" y="59" width="3" height="3" fill="#3f3f3f"/><rect x="185" y="62" width="3" height="3" fill="#3f3f3f"/><rect x="185" y="65" width="15" height="3" fill="#3f3f3f"/><rect x="221" y="47" width="12" height="3" fill="#3f3f3f"/><rect x="221" y="50" width="3" height="3" fill="#3f3f3f"/><rect x="233" y="50" width="3" height="3" fill="#3f3f3f"/><rect x="221" y="53" width="3" height="3" fill="#3f3f3f"/><rect x="233" y="53" width="3" height="3" fill="#3f3f3f"/><rect x="221" y="56" width="12" height="3" fill="#3f3f3f"/><rect x="221" y="59" width="3" height="3" fill="#3f3f3f"/><rect x="227" y="59" width="3" height="3" fill="#3f3f3f"/><rect x="221" y="62" width="3" height="3" fill="#3f3f3f"/><rect x="230" y="62" width="3" height="3" fill="#3f3f3f"/><rect x="221" y="65" width="3" height="3" fill="#3f3f3f"/><rect x="233" y="65" width="3" height="3" fill="#3f3f3f"/><rect x="239" y="47" width="15" height="3" fill="#3f3f3f"/><rect x="239" y="50" width="3" height="3" fill="#3f3f3f"/><rect x="239" y="53" width="3" height="3" fill="#3f3f3f"/><rect x="239" y="56" width="12" height="3" fill="#3f3f3f"/><rect x="239" y="59" width="3" height="3" fill="#3f3f3f"/><rect x="239" y="62" width="3" height="3" fill="#3f3f3f"/><rect x="239" y="65" width="15" height="3" fill="#3f3f3f"/><rect x="260" y="47" width="9" height="3" fill="#3f3f3f"/><rect x="257" y="50" width="3" height="3" fill="#3f3f3f"/><rect x="269" y="50" width="3" height="3" fill="#3f3f3f"/><rect x="257" y="53" width="3" height="3" fill="#3f3f3f"/><rect x="269" y="53" width="3" height="3" fill="#3f3f3f"/><rect x="257" y="56" width="15" height="3" fill="#3f3f3f"/><rect x="257" y="59" width="3" height="3" fill="#3f3f3f"/><rect x="269" y="59" width="3" height="3" fill="#3f3f3f"/><rect x="257" y="62" width="3" height="3" fill="#3f3f3f"/><rect x="269" y="62" width="3" height="3" fill="#3f3f3f"/><rect x="257" y="65" width="3" height="3" fill="#3f3f3f"/><rect x="269" y="65" width="3" height="3" fill="#3f3f3f"/><rect x="278" y="47" width="9" height="3" fill="#3f3f3f"/><rect x="275" y="50" width="3" height="3" fill="#3f3f3f"/><rect x="287" y="50" width="3" height="3" fill="#3f3f3f"/><rect x="275" y="53" width="3" height="3" fill="#3f3f3f"/><rect x="275" y="56" width="3" height="3" fill="#3f3f3f"/><rect x="275" y="59" width="3" height="3" fill="#3f3f3f"/><rect x="275" y="62" width="3" height="3" fill="#3f3f3f"/><rect x="287" y="62" width="3" height="3" fill="#3f3f3f"/><rect x="278" y="65" width="9" height="3" fill="#3f3f3f"/><rect x="293" y="47" width="3" height="3" fill="#3f3f3f"/><rect x="305" y="47" width="3" height="3" fill="#3f3f3f"/><rect x="293" y="50" width="3" height="3" fill="#3f3f3f"/><rect x="305" y="50" width="3" height="3" fill="#3f3f3f"/><rect x="293" y="53" width="3" height="3" fill="#3f3f3f"/><rect x="305" y="53" width="3" height="3" fill="#3f3f3f"/><rect x="293" y="56" width="15" height="3" fill="#3f3f3f"/><rect x="293" y="59" width="3" height="3" fill="#3f3f3f"/><rect x="305" y="59" width="3" height="3" fill="#3f3f3f"/><rect x="293" y="62" width="3" height="3" fill="#3f3f3f"/><rect x="305" y="62" width="3" height="3" fill="#3f3f3f"/><rect x="293" y="65" width="3" height="3" fill="#3f3f3f"/><rect x="305" y="65" width="3" height="3" fill="#3f3f3f"/><rect x="311" y="47" width="15" height="3" fill="#3f3f3f"/><rect x="311" y="50" width="3" height="3" fill="#3f3f3f"/><rect x="311" y="53" width="3" height="3" fill="#3f3f3f"/><rect x="311" y="56" width="12" height="3" fill="#3f3f3f"/><rect x="311" y="59" width="3" height="3" fill="#3f3f3f"/><rect x="311" y="62" width="3" height="3" fill="#3f3f3f"/><rect x="311" y="65" width="15" height="3" fill="#3f3f3f"/><rect x="329" y="47" width="9" height="3" fill="#3f3f3f"/><rect x="329" y="50" width="3" height="3" fill="#3f3f3f"/><rect x="338" y="50" width="3" height="3" fill="#3f3f3f"/><rect x="329" y="53" width="3" height="3" fill="#3f3f3f"/><rect x="341" y="53" width="3" height="3" fill="#3f3f3f"/><rect x="329" y="56" width="3" height="3" fill="#3f3f3f"/><rect x="341" y="56" width="3" height="3" fill="#3f3f3f"/><rect x="329" y="59" width="3" height="3" fill="#3f3f3f"/><rect x="341" y="59" width="3" height="3" fill="#3f3f3f"/><rect x="329" y="62" width="3" height="3" fill="#3f3f3f"/><rect x="338" y="62" width="3" height="3" fill="#3f3f3f"/><rect x="329" y="65" width="9" height="3" fill="#3f3f3f"/><rect x="353" y="47" width="3" height="3" fill="#3f3f3f"/><rect x="353" y="50" width="3" height="3" fill="#3f3f3f"/><rect x="353" y="53" width="3" height="3" fill="#3f3f3f"/><rect x="353" y="56" width="3" height="3" fill="#3f3f3f"/><rect x="353" y="59" width="3" height="3" fill="#3f3f3f"/><rect x="353" y="65" width="3" height="3" fill="#3f3f3f"/><rect x="131" y="44" width="9" height="3" fill="#a8a8a8"/><rect x="128" y="47" width="3" height="3" fill="#a8a8a8"/><rect x="140" y="47" width="3" height="3" fill="#a8a8a8"/><rect x="128" y="50" width="3" height="3" fill="#a8a8a8"/><rect x="128" y="53" width="3" height="3" fill="#a8a8a8"/><rect x="134" y="53" width="9" height="3" fill="#a8a8a8"/><rect x="128" y="56" width="3" height="3" fill="#a8a8a8"/><rect x="140" y="56" width="3" height="3" fill="#a8a8a8"/><rect x="128" y="59" width="3" height="3" fill="#a8a8a8"/><rect x="140" y="59" width="3" height="3" fill="#a8a8a8"/><rect x="131" y="62" width="12" height="3" fill="#a8a8a8"/><rect x="149" y="44" width="9" height="3" fill="#a8a8a8"/><rect x="146" y="47" width="3" height="3" fill="#a8a8a8"/><rect x="158" y="47" width="3" height="3" fill="#a8a8a8"/><rect x="146" y="50" width="3" height="3" fill="#a8a8a8"/><rect x="158" y="50" width="3" height="3" fill="#a8a8a8"/><rect x="146" y="53" width="3" height="3" fill="#a8a8a8"/><rect x="158" y="53" width="3" height="3" fill="#a8a8a8"/><rect x="146" y="56" width="3" height="3" fill="#a8a8a8"/><rect x="158" y="56" width="3" height="3" fill="#a8a8a8"/><rect x="146" y="59" width="3" height="3" fill="#a8a8a8"/><rect x="158" y="59" width="3" height="3" fill="#a8a8a8"/><rect x="149" y="62" width="9" height="3" fill="#a8a8a8"/><rect x="167" y="44" width="9" height="3" fill="#a8a8a8"/><rect x="164" y="47" width="3" height="3" fill="#a8a8a8"/><rect x="176" y="47" width="3" height="3" fill="#a8a8a8"/><rect x="164" y="50" width="3" height="3" fill="#a8a8a8"/><rect x="176" y="50" width="3" height="3" fill="#a8a8a8"/><rect x="164" y="53" width="15" height="3" fill="#a8a8a8"/><rect x="164" y="56" width="3" height="3" fill="#a8a8a8"/><rect x="176" y="56" width="3" height="3" fill="#a8a8a8"/><rect x="164" y="59" width="3" height="3" fill="#a8a8a8"/><rect x="176" y="59" width="3" height="3" fill="#a8a8a8"/><rect x="164" y="62" width="3" height="3" fill="#a8a8a8"/><rect x="176" y="62" width="3" height="3" fill="#a8a8a8"/><rect x="182" y="44" width="3" height="3" fill="#a8a8a8"/><rect x="182" y="47" width="3" height="3" fill="#a8a8a8"/><rect x="182" y="50" width="3" height="3" fill="#a8a8a8"/><rect x="182" y="53" width="3" height="3" fill="#a8a8a8"/><rect x="182" y="56" width="3" height="3" fill="#a8a8a8"/><rect x="182" y="59" width="3" height="3" fill="#a8a8a8"/><rect x="182" y="62" width="15" height="3" fill="#a8a8a8"/><rect x="218" y="44" width="12" height="3" fill="#a8a8a8"/><rect x="218" y="47" width="3" height="3" fill="#a8a8a8"/><rect x="230" y="47" width="3" height="3" fill="#a8a8a8"/><rect x="218" y="50" width="3" height="3" fill="#a8a8a8"/><rect x="230" y="50" width="3" height="3" fill="#a8a8a8"/><rect x="218" y="53" width="12" height="3" fill="#a8a8a8"/><rect x="218" y="56" width="3" height="3" fill="#a8a8a8"/><rect x="224" y="56" width="3" height="3" fill="#a8a8a8"/><rect x="218" y="59" width="3" height="3" fill="#a8a8a8"/><rect x="227" y="59" width="3" height="3" fill="#a8a8a8"/><rect x="218" y="62" width="3" height="3" fill="#a8a8a8"/><rect x="230" y="62" width="3" height="3" fill="#a8a8a8"/><rect x="236" y="44" width="15" height="3" fill="#a8a8a8"/><rect x="236" y="47" width="3" height="3" fill="#a8a8a8"/><rect x="236" y="50" width="3" height="3" fill="#a8a8a8"/><rect x="236" y="53" width="12" height="3" fill="#a8a8a8"/><rect x="236" y="56" width="3" height="3" fill="#a8a8a8"/><rect x="236" y="59" width="3" height="3" fill="#a8a8a8"/><rect x="236" y="62" width="15" height="3" fill="#a8a8a8"/><rect x="257" y="44" width="9" height="3" fill="#a8a8a8"/><rect x="254" y="47" width="3" height="3" fill="#a8a8a8"/><rect x="266" y="47" width="3" height="3" fill="#a8a8a8"/><rect x="254" y="50" width="3" height="3" fill="#a8a8a8"/><rect x="266" y="50" width="3" height="3" fill="#a8a8a8"/><rect x="254" y="53" width="15" height="3" fill="#a8a8a8"/><rect x="254" y="56" width="3" height="3" fill="#a8a8a8"/><rect x="266" y="56" width="3" height="3" fill="#a8a8a8"/><rect x="254" y="59" width="3" height="3" fill="#a8a8a8"/><rect x="266" y="59" width="3" height="3" fill="#a8a8a8"/><rect x="254" y="62" width="3" height="3" fill="#a8a8a8"/><rect x="266" y="62" width="3" height="3" fill="#a8a8a8"/><rect x="275" y="44" width="9" height="3" fill="#a8a8a8"/><rect x="272" y="47" width="3" height="3" fill="#a8a8a8"/><rect x="284" y="47" width="3" height="3" fill="#a8a8a8"/><rect x="272" y="50" width="3" height="3" fill="#a8a8a8"/><rect x="272" y="53" width="3" height="3" fill="#a8a8a8"/><rect x="272" y="56" width="3" height="3" fill="#a8a8a8"/><rect x="272" y="59" width="3" height="3" fill="#a8a8a8"/><rect x="284" y="59" width="3" height="3" fill="#a8a8a8"/><rect x="275" y="62" width="9" height="3" fill="#a8a8a8"/><rect x="290" y="44" width="3" height="3" fill="#a8a8a8"/><rect x="302" y="44" width="3" height="3" fill="#a8a8a8"/><rect x="290" y="47" width="3" height="3" fill="#a8a8a8"/><rect x="302" y="47" width="3" height="3" fill="#a8a8a8"/><rect x="290" y="50" width="3" height="3" fill="#a8a8a8"/><rect x="302" y="50" width="3" height="3" fill="#a8a8a8"/><rect x="290" y="53" width="15" height="3" fill="#a8a8a8"/><rect x="290" y="56" width="3" height="3" fill="#a8a8a8"/><rect x="302" y="56" width="3" height="3" fill="#a8a8a8"/><rect x="290" y="59" width="3" height="3" fill="#a8a8a8"/><rect x="302" y="59" width="3" height="3" fill="#a8a8a8"/><rect x="290" y="62" width="3" height="3" fill="#a8a8a8"/><rect x="302" y="62" width="3" height="3" fill="#a8a8a8"/><rect x="308" y="44" width="15" height="3" fill="#a8a8a8"/><rect x="308" y="47" width="3" height="3" fill="#a8a8a8"/><rect x="308" y="50" width="3" height="3" fill="#a8a8a8"/><rect x="308" y="53" width="12" height="3" fill="#a8a8a8"/><rect x="308" y="56" width="3" height="3" fill="#a8a8a8"/><rect x="308" y="59" width="3" height="3" fill="#a8a8a8"/><rect x="308" y="62" width="15" height="3" fill="#a8a8a8"/><rect x="326" y="44" width="9" height="3" fill="#a8a8a8"/><rect x="326" y="47" width="3" height="3" fill="#a8a8a8"/><rect x="335" y="47" width="3" height="3" fill="#a8a8a8"/><rect x="326" y="50" width="3" height="3" fill="#a8a8a8"/><rect x="338" y="50" width="3" height="3" fill="#a8a8a8"/><rect x="326" y="53" width="3" height="3" fill="#a8a8a8"/><rect x="338" y="53" width="3" height="3" fill="#a8a8a8"/><rect x="326" y="56" width="3" height="3" fill="#a8a8a8"/><rect x="338" y="56" width="3" height="3" fill="#a8a8a8"/><rect x="326" y="59" width="3" height="3" fill="#a8a8a8"/><rect x="335" y="59" width="3" height="3" fill="#a8a8a8"/><rect x="326" y="62" width="9" height="3" fill="#a8a8a8"/><rect x="350" y="44" width="3" height="3" fill="#a8a8a8"/><rect x="350" y="47" width="3" height="3" fill="#a8a8a8"/><rect x="350" y="50" width="3" height="3" fill="#a8a8a8"/><rect x="350" y="53" width="3" height="3" fill="#a8a8a8"/><rect x="350" y="56" width="3" height="3" fill="#a8a8a8"/><rect x="350" y="62" width="3" height="3" fill="#a8a8a8"/>
  <rect x="136" y="78" width="12" height="4" fill="#3f3f3f"/><rect x="132" y="82" width="4" height="4" fill="#3f3f3f"/><rect x="148" y="82" width="4" height="4" fill="#3f3f3f"/><rect x="132" y="86" width="4" height="4" fill="#3f3f3f"/><rect x="132" y="90" width="4" height="4" fill="#3f3f3f"/><rect x="132" y="94" width="4" height="4" fill="#3f3f3f"/><rect x="132" y="98" width="4" height="4" fill="#3f3f3f"/><rect x="148" y="98" width="4" height="4" fill="#3f3f3f"/><rect x="136" y="102" width="12" height="4" fill="#3f3f3f"/><rect x="156" y="78" width="4" height="4" fill="#3f3f3f"/><rect x="156" y="82" width="4" height="4" fill="#3f3f3f"/><rect x="156" y="86" width="4" height="4" fill="#3f3f3f"/><rect x="156" y="90" width="4" height="4" fill="#3f3f3f"/><rect x="156" y="94" width="4" height="4" fill="#3f3f3f"/><rect x="156" y="98" width="4" height="4" fill="#3f3f3f"/><rect x="156" y="102" width="20" height="4" fill="#3f3f3f"/><rect x="184" y="78" width="12" height="4" fill="#3f3f3f"/><rect x="180" y="82" width="4" height="4" fill="#3f3f3f"/><rect x="196" y="82" width="4" height="4" fill="#3f3f3f"/><rect x="180" y="86" width="4" height="4" fill="#3f3f3f"/><rect x="196" y="86" width="4" height="4" fill="#3f3f3f"/><rect x="180" y="90" width="20" height="4" fill="#3f3f3f"/><rect x="180" y="94" width="4" height="4" fill="#3f3f3f"/><rect x="196" y="94" width="4" height="4" fill="#3f3f3f"/><rect x="180" y="98" width="4" height="4" fill="#3f3f3f"/><rect x="196" y="98" width="4" height="4" fill="#3f3f3f"/><rect x="180" y="102" width="4" height="4" fill="#3f3f3f"/><rect x="196" y="102" width="4" height="4" fill="#3f3f3f"/><rect x="208" y="78" width="16" height="4" fill="#3f3f3f"/><rect x="204" y="82" width="4" height="4" fill="#3f3f3f"/><rect x="204" y="86" width="4" height="4" fill="#3f3f3f"/><rect x="208" y="90" width="12" height="4" fill="#3f3f3f"/><rect x="220" y="94" width="4" height="4" fill="#3f3f3f"/><rect x="220" y="98" width="4" height="4" fill="#3f3f3f"/><rect x="204" y="102" width="16" height="4" fill="#3f3f3f"/><rect x="232" y="78" width="16" height="4" fill="#3f3f3f"/><rect x="228" y="82" width="4" height="4" fill="#3f3f3f"/><rect x="228" y="86" width="4" height="4" fill="#3f3f3f"/><rect x="232" y="90" width="12" height="4" fill="#3f3f3f"/><rect x="244" y="94" width="4" height="4" fill="#3f3f3f"/><rect x="244" y="98" width="4" height="4" fill="#3f3f3f"/><rect x="228" y="102" width="16" height="4" fill="#3f3f3f"/><rect x="252" y="78" width="20" height="4" fill="#3f3f3f"/><rect x="260" y="82" width="4" height="4" fill="#3f3f3f"/><rect x="260" y="86" width="4" height="4" fill="#3f3f3f"/><rect x="260" y="90" width="4" height="4" fill="#3f3f3f"/><rect x="260" y="94" width="4" height="4" fill="#3f3f3f"/><rect x="260" y="98" width="4" height="4" fill="#3f3f3f"/><rect x="252" y="102" width="20" height="4" fill="#3f3f3f"/><rect x="276" y="78" width="20" height="4" fill="#3f3f3f"/><rect x="276" y="82" width="4" height="4" fill="#3f3f3f"/><rect x="276" y="86" width="4" height="4" fill="#3f3f3f"/><rect x="276" y="90" width="16" height="4" fill="#3f3f3f"/><rect x="276" y="94" width="4" height="4" fill="#3f3f3f"/><rect x="276" y="98" width="4" height="4" fill="#3f3f3f"/><rect x="276" y="102" width="4" height="4" fill="#3f3f3f"/><rect x="300" y="78" width="20" height="4" fill="#3f3f3f"/><rect x="308" y="82" width="4" height="4" fill="#3f3f3f"/><rect x="308" y="86" width="4" height="4" fill="#3f3f3f"/><rect x="308" y="90" width="4" height="4" fill="#3f3f3f"/><rect x="308" y="94" width="4" height="4" fill="#3f3f3f"/><rect x="308" y="98" width="4" height="4" fill="#3f3f3f"/><rect x="300" y="102" width="20" height="4" fill="#3f3f3f"/><rect x="324" y="78" width="20" height="4" fill="#3f3f3f"/><rect x="324" y="82" width="4" height="4" fill="#3f3f3f"/><rect x="324" y="86" width="4" height="4" fill="#3f3f3f"/><rect x="324" y="90" width="16" height="4" fill="#3f3f3f"/><rect x="324" y="94" width="4" height="4" fill="#3f3f3f"/><rect x="324" y="98" width="4" height="4" fill="#3f3f3f"/><rect x="324" y="102" width="20" height="4" fill="#3f3f3f"/><rect x="348" y="78" width="12" height="4" fill="#3f3f3f"/><rect x="348" y="82" width="4" height="4" fill="#3f3f3f"/><rect x="360" y="82" width="4" height="4" fill="#3f3f3f"/><rect x="348" y="86" width="4" height="4" fill="#3f3f3f"/><rect x="364" y="86" width="4" height="4" fill="#3f3f3f"/><rect x="348" y="90" width="4" height="4" fill="#3f3f3f"/><rect x="364" y="90" width="4" height="4" fill="#3f3f3f"/><rect x="348" y="94" width="4" height="4" fill="#3f3f3f"/><rect x="364" y="94" width="4" height="4" fill="#3f3f3f"/><rect x="348" y="98" width="4" height="4" fill="#3f3f3f"/><rect x="360" y="98" width="4" height="4" fill="#3f3f3f"/><rect x="348" y="102" width="12" height="4" fill="#3f3f3f"/><rect x="132" y="74" width="12" height="4" fill="#ffffff"/><rect x="128" y="78" width="4" height="4" fill="#ffffff"/><rect x="144" y="78" width="4" height="4" fill="#ffffff"/><rect x="128" y="82" width="4" height="4" fill="#ffffff"/><rect x="128" y="86" width="4" height="4" fill="#ffffff"/><rect x="128" y="90" width="4" height="4" fill="#ffffff"/><rect x="128" y="94" width="4" height="4" fill="#ffffff"/><rect x="144" y="94" width="4" height="4" fill="#ffffff"/><rect x="132" y="98" width="12" height="4" fill="#ffffff"/><rect x="152" y="74" width="4" height="4" fill="#ffffff"/><rect x="152" y="78" width="4" height="4" fill="#ffffff"/><rect x="152" y="82" width="4" height="4" fill="#ffffff"/><rect x="152" y="86" width="4" height="4" fill="#ffffff"/><rect x="152" y="90" width="4" height="4" fill="#ffffff"/><rect x="152" y="94" width="4" height="4" fill="#ffffff"/><rect x="152" y="98" width="20" height="4" fill="#ffffff"/><rect x="180" y="74" width="12" height="4" fill="#ffffff"/><rect x="176" y="78" width="4" height="4" fill="#ffffff"/><rect x="192" y="78" width="4" height="4" fill="#ffffff"/><rect x="176" y="82" width="4" height="4" fill="#ffffff"/><rect x="192" y="82" width="4" height="4" fill="#ffffff"/><rect x="176" y="86" width="20" height="4" fill="#ffffff"/><rect x="176" y="90" width="4" height="4" fill="#ffffff"/><rect x="192" y="90" width="4" height="4" fill="#ffffff"/><rect x="176" y="94" width="4" height="4" fill="#ffffff"/><rect x="192" y="94" width="4" height="4" fill="#ffffff"/><rect x="176" y="98" width="4" height="4" fill="#ffffff"/><rect x="192" y="98" width="4" height="4" fill="#ffffff"/><rect x="204" y="74" width="16" height="4" fill="#ffffff"/><rect x="200" y="78" width="4" height="4" fill="#ffffff"/><rect x="200" y="82" width="4" height="4" fill="#ffffff"/><rect x="204" y="86" width="12" height="4" fill="#ffffff"/><rect x="216" y="90" width="4" height="4" fill="#ffffff"/><rect x="216" y="94" width="4" height="4" fill="#ffffff"/><rect x="200" y="98" width="16" height="4" fill="#ffffff"/><rect x="228" y="74" width="16" height="4" fill="#ffffff"/><rect x="224" y="78" width="4" height="4" fill="#ffffff"/><rect x="224" y="82" width="4" height="4" fill="#ffffff"/><rect x="228" y="86" width="12" height="4" fill="#ffffff"/><rect x="240" y="90" width="4" height="4" fill="#ffffff"/><rect x="240" y="94" width="4" height="4" fill="#ffffff"/><rect x="224" y="98" width="16" height="4" fill="#ffffff"/><rect x="248" y="74" width="20" height="4" fill="#ffffff"/><rect x="256" y="78" width="4" height="4" fill="#ffffff"/><rect x="256" y="82" width="4" height="4" fill="#ffffff"/><rect x="256" y="86" width="4" height="4" fill="#ffffff"/><rect x="256" y="90" width="4" height="4" fill="#ffffff"/><rect x="256" y="94" width="4" height="4" fill="#ffffff"/><rect x="248" y="98" width="20" height="4" fill="#ffffff"/><rect x="272" y="74" width="20" height="4" fill="#ffffff"/><rect x="272" y="78" width="4" height="4" fill="#ffffff"/><rect x="272" y="82" width="4" height="4" fill="#ffffff"/><rect x="272" y="86" width="16" height="4" fill="#ffffff"/><rect x="272" y="90" width="4" height="4" fill="#ffffff"/><rect x="272" y="94" width="4" height="4" fill="#ffffff"/><rect x="272" y="98" width="4" height="4" fill="#ffffff"/><rect x="296" y="74" width="20" height="4" fill="#ffffff"/><rect x="304" y="78" width="4" height="4" fill="#ffffff"/><rect x="304" y="82" width="4" height="4" fill="#ffffff"/><rect x="304" y="86" width="4" height="4" fill="#ffffff"/><rect x="304" y="90" width="4" height="4" fill="#ffffff"/><rect x="304" y="94" width="4" height="4" fill="#ffffff"/><rect x="296" y="98" width="20" height="4" fill="#ffffff"/><rect x="320" y="74" width="20" height="4" fill="#ffffff"/><rect x="320" y="78" width="4" height="4" fill="#ffffff"/><rect x="320" y="82" width="4" height="4" fill="#ffffff"/><rect x="320" y="86" width="16" height="4" fill="#ffffff"/><rect x="320" y="90" width="4" height="4" fill="#ffffff"/><rect x="320" y="94" width="4" height="4" fill="#ffffff"/><rect x="320" y="98" width="20" height="4" fill="#ffffff"/><rect x="344" y="74" width="12" height="4" fill="#ffffff"/><rect x="344" y="78" width="4" height="4" fill="#ffffff"/><rect x="356" y="78" width="4" height="4" fill="#ffffff"/><rect x="344" y="82" width="4" height="4" fill="#ffffff"/><rect x="360" y="82" width="4" height="4" fill="#ffffff"/><rect x="344" y="86" width="4" height="4" fill="#ffffff"/><rect x="360" y="86" width="4" height="4" fill="#ffffff"/><rect x="344" y="90" width="4" height="4" fill="#ffffff"/><rect x="360" y="90" width="4" height="4" fill="#ffffff"/><rect x="344" y="94" width="4" height="4" fill="#ffffff"/><rect x="356" y="94" width="4" height="4" fill="#ffffff"/><rect x="344" y="98" width="12" height="4" fill="#ffffff"/>
  <rect x="132" y="118" width="6" height="2" fill="#3f3f3f"/><rect x="130" y="120" width="2" height="2" fill="#3f3f3f"/><rect x="138" y="120" width="2" height="2" fill="#3f3f3f"/><rect x="138" y="122" width="2" height="2" fill="#3f3f3f"/><rect x="136" y="124" width="2" height="2" fill="#3f3f3f"/><rect x="134" y="126" width="2" height="2" fill="#3f3f3f"/><rect x="134" y="130" width="2" height="2" fill="#3f3f3f"/><rect x="144" y="118" width="6" height="2" fill="#3f3f3f"/><rect x="142" y="120" width="2" height="2" fill="#3f3f3f"/><rect x="150" y="120" width="2" height="2" fill="#3f3f3f"/><rect x="150" y="122" width="2" height="2" fill="#3f3f3f"/><rect x="148" y="124" width="2" height="2" fill="#3f3f3f"/><rect x="146" y="126" width="2" height="2" fill="#3f3f3f"/><rect x="146" y="130" width="2" height="2" fill="#3f3f3f"/><rect x="156" y="118" width="6" height="2" fill="#3f3f3f"/><rect x="154" y="120" width="2" height="2" fill="#3f3f3f"/><rect x="162" y="120" width="2" height="2" fill="#3f3f3f"/><rect x="162" y="122" width="2" height="2" fill="#3f3f3f"/><rect x="160" y="124" width="2" height="2" fill="#3f3f3f"/><rect x="158" y="126" width="2" height="2" fill="#3f3f3f"/><rect x="158" y="130" width="2" height="2" fill="#3f3f3f"/><rect x="130" y="116" width="6" height="2" fill="#9a9a9a"/><rect x="128" y="118" width="2" height="2" fill="#9a9a9a"/><rect x="136" y="118" width="2" height="2" fill="#9a9a9a"/><rect x="136" y="120" width="2" height="2" fill="#9a9a9a"/><rect x="134" y="122" width="2" height="2" fill="#9a9a9a"/><rect x="132" y="124" width="2" height="2" fill="#9a9a9a"/><rect x="132" y="128" width="2" height="2" fill="#9a9a9a"/><rect x="142" y="116" width="6" height="2" fill="#9a9a9a"/><rect x="140" y="118" width="2" height="2" fill="#9a9a9a"/><rect x="148" y="118" width="2" height="2" fill="#9a9a9a"/><rect x="148" y="120" width="2" height="2" fill="#9a9a9a"/><rect x="146" y="122" width="2" height="2" fill="#9a9a9a"/><rect x="144" y="124" width="2" height="2" fill="#9a9a9a"/><rect x="144" y="128" width="2" height="2" fill="#9a9a9a"/><rect x="154" y="116" width="6" height="2" fill="#9a9a9a"/><rect x="152" y="118" width="2" height="2" fill="#9a9a9a"/><rect x="160" y="118" width="2" height="2" fill="#9a9a9a"/><rect x="160" y="120" width="2" height="2" fill="#9a9a9a"/><rect x="158" y="122" width="2" height="2" fill="#9a9a9a"/><rect x="156" y="124" width="2" height="2" fill="#9a9a9a"/><rect x="156" y="128" width="2" height="2" fill="#9a9a9a"/>
  <rect x="423" y="141" width="9" height="3" fill="#3f3f3f"/><rect x="423" y="144" width="3" height="3" fill="#3f3f3f"/><rect x="423" y="147" width="3" height="3" fill="#3f3f3f"/><rect x="423" y="150" width="3" height="3" fill="#3f3f3f"/><rect x="423" y="153" width="3" height="3" fill="#3f3f3f"/><rect x="423" y="156" width="3" height="3" fill="#3f3f3f"/><rect x="423" y="159" width="9" height="3" fill="#3f3f3f"/><rect x="459" y="141" width="9" height="3" fill="#3f3f3f"/><rect x="456" y="144" width="3" height="3" fill="#3f3f3f"/><rect x="468" y="144" width="3" height="3" fill="#3f3f3f"/><rect x="456" y="147" width="3" height="3" fill="#3f3f3f"/><rect x="468" y="147" width="3" height="3" fill="#3f3f3f"/><rect x="456" y="150" width="3" height="3" fill="#3f3f3f"/><rect x="468" y="150" width="3" height="3" fill="#3f3f3f"/><rect x="456" y="153" width="3" height="3" fill="#3f3f3f"/><rect x="468" y="153" width="3" height="3" fill="#3f3f3f"/><rect x="456" y="156" width="3" height="3" fill="#3f3f3f"/><rect x="468" y="156" width="3" height="3" fill="#3f3f3f"/><rect x="459" y="159" width="9" height="3" fill="#3f3f3f"/><rect x="474" y="141" width="12" height="3" fill="#3f3f3f"/><rect x="474" y="144" width="3" height="3" fill="#3f3f3f"/><rect x="486" y="144" width="3" height="3" fill="#3f3f3f"/><rect x="474" y="147" width="3" height="3" fill="#3f3f3f"/><rect x="486" y="147" width="3" height="3" fill="#3f3f3f"/><rect x="474" y="150" width="12" height="3" fill="#3f3f3f"/><rect x="474" y="153" width="3" height="3" fill="#3f3f3f"/><rect x="474" y="156" width="3" height="3" fill="#3f3f3f"/><rect x="474" y="159" width="3" height="3" fill="#3f3f3f"/><rect x="492" y="141" width="15" height="3" fill="#3f3f3f"/><rect x="492" y="144" width="3" height="3" fill="#3f3f3f"/><rect x="492" y="147" width="3" height="3" fill="#3f3f3f"/><rect x="492" y="150" width="12" height="3" fill="#3f3f3f"/><rect x="492" y="153" width="3" height="3" fill="#3f3f3f"/><rect x="492" y="156" width="3" height="3" fill="#3f3f3f"/><rect x="492" y="159" width="15" height="3" fill="#3f3f3f"/><rect x="510" y="141" width="3" height="3" fill="#3f3f3f"/><rect x="522" y="141" width="3" height="3" fill="#3f3f3f"/><rect x="510" y="144" width="6" height="3" fill="#3f3f3f"/><rect x="522" y="144" width="3" height="3" fill="#3f3f3f"/><rect x="510" y="147" width="3" height="3" fill="#3f3f3f"/><rect x="516" y="147" width="3" height="3" fill="#3f3f3f"/><rect x="522" y="147" width="3" height="3" fill="#3f3f3f"/><rect x="510" y="150" width="3" height="3" fill="#3f3f3f"/><rect x="519" y="150" width="6" height="3" fill="#3f3f3f"/><rect x="510" y="153" width="3" height="3" fill="#3f3f3f"/><rect x="522" y="153" width="3" height="3" fill="#3f3f3f"/><rect x="510" y="156" width="3" height="3" fill="#3f3f3f"/><rect x="522" y="156" width="3" height="3" fill="#3f3f3f"/><rect x="510" y="159" width="3" height="3" fill="#3f3f3f"/><rect x="522" y="159" width="3" height="3" fill="#3f3f3f"/><rect x="549" y="141" width="9" height="3" fill="#3f3f3f"/><rect x="555" y="144" width="3" height="3" fill="#3f3f3f"/><rect x="555" y="147" width="3" height="3" fill="#3f3f3f"/><rect x="555" y="150" width="3" height="3" fill="#3f3f3f"/><rect x="555" y="153" width="3" height="3" fill="#3f3f3f"/><rect x="555" y="156" width="3" height="3" fill="#3f3f3f"/><rect x="549" y="159" width="9" height="3" fill="#3f3f3f"/><rect x="420" y="138" width="9" height="3" fill="#7fb238"/><rect x="420" y="141" width="3" height="3" fill="#7fb238"/><rect x="420" y="144" width="3" height="3" fill="#7fb238"/><rect x="420" y="147" width="3" height="3" fill="#7fb238"/><rect x="420" y="150" width="3" height="3" fill="#7fb238"/><rect x="420" y="153" width="3" height="3" fill="#7fb238"/><rect x="420" y="156" width="9" height="3" fill="#7fb238"/><rect x="456" y="138" width="9" height="3" fill="#7fb238"/><rect x="453" y="141" width="3" height="3" fill="#7fb238"/><rect x="465" y="141" width="3" height="3" fill="#7fb238"/><rect x="453" y="144" width="3" height="3" fill="#7fb238"/><rect x="465" y="144" width="3" height="3" fill="#7fb238"/><rect x="453" y="147" width="3" height="3" fill="#7fb238"/><rect x="465" y="147" width="3" height="3" fill="#7fb238"/><rect x="453" y="150" width="3" height="3" fill="#7fb238"/><rect x="465" y="150" width="3" height="3" fill="#7fb238"/><rect x="453" y="153" width="3" height="3" fill="#7fb238"/><rect x="465" y="153" width="3" height="3" fill="#7fb238"/><rect x="456" y="156" width="9" height="3" fill="#7fb238"/><rect x="471" y="138" width="12" height="3" fill="#7fb238"/><rect x="471" y="141" width="3" height="3" fill="#7fb238"/><rect x="483" y="141" width="3" height="3" fill="#7fb238"/><rect x="471" y="144" width="3" height="3" fill="#7fb238"/><rect x="483" y="144" width="3" height="3" fill="#7fb238"/><rect x="471" y="147" width="12" height="3" fill="#7fb238"/><rect x="471" y="150" width="3" height="3" fill="#7fb238"/><rect x="471" y="153" width="3" height="3" fill="#7fb238"/><rect x="471" y="156" width="3" height="3" fill="#7fb238"/><rect x="489" y="138" width="15" height="3" fill="#7fb238"/><rect x="489" y="141" width="3" height="3" fill="#7fb238"/><rect x="489" y="144" width="3" height="3" fill="#7fb238"/><rect x="489" y="147" width="12" height="3" fill="#7fb238"/><rect x="489" y="150" width="3" height="3" fill="#7fb238"/><rect x="489" y="153" width="3" height="3" fill="#7fb238"/><rect x="489" y="156" width="15" height="3" fill="#7fb238"/><rect x="507" y="138" width="3" height="3" fill="#7fb238"/><rect x="519" y="138" width="3" height="3" fill="#7fb238"/><rect x="507" y="141" width="6" height="3" fill="#7fb238"/><rect x="519" y="141" width="3" height="3" fill="#7fb238"/><rect x="507" y="144" width="3" height="3" fill="#7fb238"/><rect x="513" y="144" width="3" height="3" fill="#7fb238"/><rect x="519" y="144" width="3" height="3" fill="#7fb238"/><rect x="507" y="147" width="3" height="3" fill="#7fb238"/><rect x="516" y="147" width="6" height="3" fill="#7fb238"/><rect x="507" y="150" width="3" height="3" fill="#7fb238"/><rect x="519" y="150" width="3" height="3" fill="#7fb238"/><rect x="507" y="153" width="3" height="3" fill="#7fb238"/><rect x="519" y="153" width="3" height="3" fill="#7fb238"/><rect x="507" y="156" width="3" height="3" fill="#7fb238"/><rect x="519" y="156" width="3" height="3" fill="#7fb238"/><rect x="546" y="138" width="9" height="3" fill="#7fb238"/><rect x="552" y="141" width="3" height="3" fill="#7fb238"/><rect x="552" y="144" width="3" height="3" fill="#7fb238"/><rect x="552" y="147" width="3" height="3" fill="#7fb238"/><rect x="552" y="150" width="3" height="3" fill="#7fb238"/><rect x="552" y="153" width="3" height="3" fill="#7fb238"/><rect x="546" y="156" width="9" height="3" fill="#7fb238"/></svg>